REM DIRINDEX 1\2,1\3,1\4,1\5,1\6
REM DIRNAME cjc030,folder01,folder02,folder03,folder04,folder05
TITLE ""
FILE "Disc2Track22.mp3" MP3
  TRACK 01 AUDIO
    TITLE "2:cjc030_02632"
    INDEX 01 00:00:00
  TRACK 02 AUDIO
    TITLE "0:"
    INDEX 01 00:02:57
  TRACK 03 AUDIO
    TITLE "3:cjc030_02633"
    INDEX 01 00:03:23
  TRACK 04 AUDIO
    TITLE "0:"
    INDEX 01 00:04:31
  TRACK 05 AUDIO
    TITLE "4:cjc030_02634"
    INDEX 01 00:04:42
  TRACK 06 AUDIO
    TITLE "0:"
    INDEX 01 00:10:53
  TRACK 07 AUDIO
    TITLE "5:cjc030_02635"
    INDEX 01 00:10:55
  TRACK 08 AUDIO
    TITLE "0:"
    INDEX 01 00:11:72
  TRACK 09 AUDIO
    TITLE "6:cjc030_02636"
    INDEX 01 00:12:09
  TRACK 10 AUDIO
    TITLE "0:"
    INDEX 01 00:16:22
  TRACK 11 AUDIO
    TITLE "6:cjc030_02637"
    INDEX 01 00:16:59
  TRACK 12 AUDIO
    TITLE "0:"
    INDEX 01 00:20:02
  TRACK 13 AUDIO
    TITLE "3:cjc030_02638"
    INDEX 01 00:20:51
  TRACK 14 AUDIO
    TITLE "0:"
    INDEX 01 00:22:11
  TRACK 15 AUDIO
    TITLE "4:cjc030_02639"
    INDEX 01 00:22:19
  TRACK 16 AUDIO
    TITLE "0:"
    INDEX 01 00:23:30
  TRACK 17 AUDIO
    TITLE "5:cjc030_02640"
    INDEX 01 00:23:38
  TRACK 18 AUDIO
    TITLE "0:"
    INDEX 01 00:24:74
  TRACK 19 AUDIO
    TITLE "3:cjc030_02641"
    INDEX 01 00:25:54
  TRACK 20 AUDIO
    TITLE "0:"
    INDEX 01 00:26:66
  TRACK 21 AUDIO
    TITLE "4:cjc030_02642"
    INDEX 01 00:26:73
  TRACK 22 AUDIO
    TITLE "0:"
    INDEX 01 00:28:06
  TRACK 23 AUDIO
    TITLE "5:cjc030_02643"
    INDEX 01 00:28:15
  TRACK 24 AUDIO
    TITLE "0:"
    INDEX 01 00:29:23
  TRACK 25 AUDIO
    TITLE "6:cjc030_02644"
    INDEX 01 00:29:36
  TRACK 26 AUDIO
    TITLE "0:"
    INDEX 01 00:33:44
  TRACK 27 AUDIO
    TITLE "3:cjc030_02645"
    INDEX 01 00:34:14
  TRACK 28 AUDIO
    TITLE "0:"
    INDEX 01 00:35:66
  TRACK 29 AUDIO
    TITLE "4:cjc030_02646"
    INDEX 01 00:36:01
  TRACK 30 AUDIO
    TITLE "0:"
    INDEX 01 00:38:28
  TRACK 31 AUDIO
    TITLE "5:cjc030_02647"
    INDEX 01 00:38:35
  TRACK 32 AUDIO
    TITLE "0:"
    INDEX 01 00:40:11
  TRACK 33 AUDIO
    TITLE "6:cjc030_02648"
    INDEX 01 00:40:24
  TRACK 34 AUDIO
    TITLE "0:"
    INDEX 01 00:45:20
  TRACK 35 AUDIO
    TITLE "3:cjc030_02649"
    INDEX 01 00:45:71
  TRACK 36 AUDIO
    TITLE "0:"
    INDEX 01 00:47:30
  TRACK 37 AUDIO
    TITLE "4:cjc030_02650"
    INDEX 01 00:47:38
  TRACK 38 AUDIO
    TITLE "0:"
    INDEX 01 00:50:03
  TRACK 39 AUDIO
    TITLE "5:cjc030_02651"
    INDEX 01 00:50:13
  TRACK 40 AUDIO
    TITLE "0:"
    INDEX 01 00:51:46
  TRACK 41 AUDIO
    TITLE "6:cjc030_02652"
    INDEX 01 00:51:60
  TRACK 42 AUDIO
    TITLE "0:"
    INDEX 01 00:57:01
  TRACK 43 AUDIO
    TITLE "3:cjc030_02653"
    INDEX 01 00:57:48
  TRACK 44 AUDIO
    TITLE "0:"
    INDEX 01 00:59:02
  TRACK 45 AUDIO
    TITLE "4:cjc030_02654"
    INDEX 01 00:59:12
  TRACK 46 AUDIO
    TITLE "0:"
    INDEX 01 01:00:23
  TRACK 47 AUDIO
    TITLE "5:cjc030_02655"
    INDEX 01 01:00:31
  TRACK 48 AUDIO
    TITLE "0:"
    INDEX 01 01:01:60
  TRACK 49 AUDIO
    TITLE "3:cjc030_02656"
    INDEX 01 01:02:40
  TRACK 50 AUDIO
    TITLE "0:"
    INDEX 01 01:03:47
  TRACK 51 AUDIO
    TITLE "4:cjc030_02657"
    INDEX 01 01:03:51
  TRACK 52 AUDIO
    TITLE "0:"
    INDEX 01 01:10:08
  TRACK 53 AUDIO
    TITLE "5:cjc030_02658"
    INDEX 01 01:10:14
  TRACK 54 AUDIO
    TITLE "0:"
    INDEX 01 01:11:21
  TRACK 55 AUDIO
    TITLE "6:cjc030_02659"
    INDEX 01 01:11:35
  TRACK 56 AUDIO
    TITLE "0:"
    INDEX 01 01:14:02
  TRACK 57 AUDIO
    TITLE "6:cjc030_02660"
    INDEX 01 01:14:37
  TRACK 58 AUDIO
    TITLE "0:"
    INDEX 01 01:19:74
  TRACK 59 AUDIO
    TITLE "3:cjc030_02661"
    INDEX 01 01:20:46
  TRACK 60 AUDIO
    TITLE "0:"
    INDEX 01 01:21:74
  TRACK 61 AUDIO
    TITLE "4:cjc030_02662"
    INDEX 01 01:22:09
  TRACK 62 AUDIO
    TITLE "0:"
    INDEX 01 01:24:18
  TRACK 63 AUDIO
    TITLE "5:cjc030_02663"
    INDEX 01 01:24:26
  TRACK 64 AUDIO
    TITLE "0:"
    INDEX 01 01:25:57
  TRACK 65 AUDIO
    TITLE "6:cjc030_02664"
    INDEX 01 01:25:68
  TRACK 66 AUDIO
    TITLE "0:"
    INDEX 01 01:30:07
  TRACK 67 AUDIO
    TITLE "3:cjc030_02665"
    INDEX 01 01:30:58
  TRACK 68 AUDIO
    TITLE "0:"
    INDEX 01 01:32:62
  TRACK 69 AUDIO
    TITLE "4:cjc030_02666"
    INDEX 01 01:32:70
  TRACK 70 AUDIO
    TITLE "0:"
    INDEX 01 01:34:30
  TRACK 71 AUDIO
    TITLE "5:cjc030_02667"
    INDEX 01 01:34:36
  TRACK 72 AUDIO
    TITLE "0:"
    INDEX 01 01:36:41
  TRACK 73 AUDIO
    TITLE "6:cjc030_02668"
    INDEX 01 01:36:54
  TRACK 74 AUDIO
    TITLE "0:"
    INDEX 01 01:42:00
  TRACK 75 AUDIO
    TITLE "3:cjc030_02669"
    INDEX 01 01:42:49
  TRACK 76 AUDIO
    TITLE "0:"
    INDEX 01 01:43:56
  TRACK 77 AUDIO
    TITLE "4:cjc030_02670"
    INDEX 01 01:43:66
  TRACK 78 AUDIO
    TITLE "0:"
    INDEX 01 01:46:27
  TRACK 79 AUDIO
    TITLE "5:cjc030_02671"
    INDEX 01 01:46:37
  TRACK 80 AUDIO
    TITLE "0:"
    INDEX 01 01:47:46
